# xmcd
#
# Track frame offsets:
#	150
#	31825
#	47787
#	67700
#	95780
#	125187
#	147955
#	172147
#	195162
#	216950
#
# Disc length: 3268 seconds
#
# Revision: 0
# Processed by: cddbd v1.5.2PL0 Copyright (c) Steve Scherf et al.
# Submitted via: EZCDAudioConverter 8.0.2.1
#
DISCID=920cc20a
DTITLE=Various Artist - Đại Hội New Way 2
DYEAR=1991
DGENRE=Indie - Alternative
TTITLE0=Kiều Nga - Give Me Your Love
TTITLE1=Ngọc Lan - Kimigasuki
TTITLE2=Lynda Trang Đài - Jump In My Car
TTITLE3=Tuyết Nhung - Stay
TTITLE4=Ngọc Tuyết - Magic Nite
TTITLE5=Tuyết Nhung - Stranger By Nite
TTITLE6=Ngọc Lan - Tear Won't Wash Away
TTITLE7=Cao Lâm - Touch By Touch
TTITLE8=Ngọc Hương - Call Me Up
TTITLE9=Lynda Trang Đài - One In A Million
EXTD=
EXTT0=
EXTT1=
EXTT2=
EXTT3=
EXTT4=
EXTT5=
EXTT6=
EXTT7=
EXTT8=
EXTT9=
PLAYORDER=
